<svg aria-hidden="true" style="position: absolute; width: 0; height: 0; overflow: hidden;" version="1.1"
    xmlns="http://www.w3.org/2000/svg" xmlns:xlink="http://www.w3.org/1999/xlink">
    <defs>
        <symbol id="icon-heart-empty" viewBox="0 0 18 16">
            <path
                d="M15.63 2.4575C15.2469 2.07425 14.7921 1.77023 14.2915 1.56281C13.7909 1.35539 13.2543 1.24863 12.7125 1.24863C12.1706 1.24863 11.634 1.35539 11.1334 1.56281C10.6329 1.77023 10.178 2.07425 9.79497 2.4575L8.99997 3.2525L8.20497 2.4575C7.4312 1.68373 6.38174 1.24903 5.28747 1.24903C4.19319 1.24903 3.14374 1.68373 2.36997 2.4575C1.5962 3.23127 1.1615 4.28072 1.1615 5.375C1.1615 6.46927 1.5962 7.51873 2.36997 8.2925L3.16497 9.0875L8.99997 14.9225L14.835 9.0875L15.63 8.2925C16.0132 7.90943 16.3172 7.45461 16.5247 6.95402C16.7321 6.45342 16.8388 5.91687 16.8388 5.375C16.8388 4.83313 16.7321 4.29658 16.5247 3.79598C16.3172 3.29539 16.0132 2.84057 15.63 2.4575Z"
                fill="none" stroke="white" stroke-opacity="0.8" stroke-width="1.5" stroke-linecap="round" stroke-linejoin="round" />
        </symbol>

        <symbol id="icon-heart-filled" width="18" height="16" viewBox="0 0 18 16">
            <path
                d="M15.6301 2.45753C15.247 2.07428 14.7922 1.77026 14.2916 1.56284C13.791 1.35542 13.2545 1.24866 12.7126 1.24866C12.1707 1.24866 11.6342 1.35542 11.1336 1.56284C10.633 1.77026 10.1782 2.07428 9.79509 2.45753L9.00009 3.25253L8.20509 2.45753C7.43132 1.68376 6.38186 1.24906 5.28759 1.24906C4.19331 1.24906 3.14386 1.68376 2.37009 2.45753C1.59632 3.2313 1.16162 4.28075 1.16162 5.37503C1.16162 6.4693 1.59632 7.51876 2.37009 8.29253L3.16509 9.08753L9.00009 14.9225L14.8351 9.08753L15.6301 8.29253C16.0133 7.90946 16.3174 7.45464 16.5248 6.95404C16.7322 6.45345 16.839 5.91689 16.839 5.37503C16.839 4.83316 16.7322 4.2966 16.5248 3.79601C16.3174 3.29542 16.0133 2.84059 15.6301 2.45753Z"
                fill="#3470FF" stroke="#3470FF" stroke-linecap="round" stroke-linejoin="round" />
        </symbol>

        <symbol id="icon-arrow-down" width="12" height="8" viewBox="0 0 12 8">
            <path d="M1 1.5L6 6.5L11 1.5" stroke="white" stroke-width="2" stroke-linecap="round"
                stroke-linejoin="round" />
        </symbol>
    </defs>
</svg>